<mxfile host="Electron" modified="2023-05-11T12:55:09.591Z" agent="Mozilla/5.0 (Macintosh; Intel Mac OS X 10_15_7) AppleWebKit/537.36 (KHTML, like Gecko) draw.io/21.2.8 Chrome/112.0.5615.165 Electron/24.2.0 Safari/537.36" etag="vJVM8jjSK2sHJsN0VrdJ" version="21.2.8" type="device">
  <diagram name="Page-1" id="VZaXTYno2Cwrsg6nHwDp">
    <mxGraphModel dx="1594" dy="777" grid="0" gridSize="10" guides="1" tooltips="1" connect="1" arrows="1" fold="1" page="0" pageScale="1" pageWidth="827" pageHeight="1169" math="0" shadow="0">
      <root>
        <mxCell id="0" />
        <mxCell id="1" parent="0" />
        <mxCell id="XG8FFDAY1oz3n9mCc_Ib-15" style="edgeStyle=none;curved=1;rounded=0;orthogonalLoop=1;jettySize=auto;html=1;entryX=0;entryY=0.5;entryDx=0;entryDy=0;entryPerimeter=0;fontSize=12;startSize=8;endSize=8;" edge="1" parent="1" source="XG8FFDAY1oz3n9mCc_Ib-1" target="XG8FFDAY1oz3n9mCc_Ib-2">
          <mxGeometry relative="1" as="geometry" />
        </mxCell>
        <mxCell id="XG8FFDAY1oz3n9mCc_Ib-1" value="" style="sketch=0;html=1;dashed=0;whitespace=wrap;fillColor=#2875E2;strokeColor=#ffffff;points=[[0.005,0.63,0],[0.1,0.2,0],[0.9,0.2,0],[0.5,0,0],[0.995,0.63,0],[0.72,0.99,0],[0.5,1,0],[0.28,0.99,0]];verticalLabelPosition=bottom;align=center;verticalAlign=top;shape=mxgraph.kubernetes.icon;prIcon=api;fontSize=16;" vertex="1" parent="1">
          <mxGeometry x="-128" y="174" width="50" height="48" as="geometry" />
        </mxCell>
        <mxCell id="XG8FFDAY1oz3n9mCc_Ib-9" style="edgeStyle=none;curved=1;rounded=0;orthogonalLoop=1;jettySize=auto;html=1;fontSize=12;startSize=8;endSize=8;" edge="1" parent="1" source="XG8FFDAY1oz3n9mCc_Ib-2" target="XG8FFDAY1oz3n9mCc_Ib-3">
          <mxGeometry relative="1" as="geometry" />
        </mxCell>
        <mxCell id="XG8FFDAY1oz3n9mCc_Ib-2" value="" style="sketch=0;points=[[0,0,0],[0.25,0,0],[0.5,0,0],[0.75,0,0],[1,0,0],[0,1,0],[0.25,1,0],[0.5,1,0],[0.75,1,0],[1,1,0],[0,0.25,0],[0,0.5,0],[0,0.75,0],[1,0.25,0],[1,0.5,0],[1,0.75,0]];outlineConnect=0;fontColor=#232F3E;gradientColor=#4D72F3;gradientDirection=north;fillColor=#3334B9;strokeColor=#ffffff;dashed=0;verticalLabelPosition=bottom;verticalAlign=top;align=center;html=1;fontSize=12;fontStyle=0;aspect=fixed;shape=mxgraph.aws4.resourceIcon;resIcon=mxgraph.aws4.dynamodb;" vertex="1" parent="1">
          <mxGeometry x="41" y="159" width="78" height="78" as="geometry" />
        </mxCell>
        <mxCell id="XG8FFDAY1oz3n9mCc_Ib-10" style="edgeStyle=none;curved=1;rounded=0;orthogonalLoop=1;jettySize=auto;html=1;entryX=0;entryY=0.5;entryDx=0;entryDy=0;entryPerimeter=0;fontSize=12;startSize=8;endSize=8;" edge="1" parent="1" source="XG8FFDAY1oz3n9mCc_Ib-3" target="XG8FFDAY1oz3n9mCc_Ib-4">
          <mxGeometry relative="1" as="geometry" />
        </mxCell>
        <mxCell id="XG8FFDAY1oz3n9mCc_Ib-3" value="" style="sketch=0;outlineConnect=0;fontColor=#232F3E;gradientColor=none;fillColor=#2E27AD;strokeColor=none;dashed=0;verticalLabelPosition=bottom;verticalAlign=top;align=center;html=1;fontSize=12;fontStyle=0;aspect=fixed;pointerEvents=1;shape=mxgraph.aws4.dynamodb_stream;" vertex="1" parent="1">
          <mxGeometry x="277" y="159" width="78" height="78" as="geometry" />
        </mxCell>
        <mxCell id="XG8FFDAY1oz3n9mCc_Ib-11" style="edgeStyle=none;curved=1;rounded=0;orthogonalLoop=1;jettySize=auto;html=1;exitX=1;exitY=0.5;exitDx=0;exitDy=0;exitPerimeter=0;fontSize=12;startSize=8;endSize=8;" edge="1" parent="1" source="XG8FFDAY1oz3n9mCc_Ib-4" target="XG8FFDAY1oz3n9mCc_Ib-5">
          <mxGeometry relative="1" as="geometry" />
        </mxCell>
        <mxCell id="XG8FFDAY1oz3n9mCc_Ib-13" style="edgeStyle=none;curved=1;rounded=0;orthogonalLoop=1;jettySize=auto;html=1;entryX=0.5;entryY=0;entryDx=0;entryDy=0;entryPerimeter=0;fontSize=12;startSize=8;endSize=8;" edge="1" parent="1" source="XG8FFDAY1oz3n9mCc_Ib-4" target="XG8FFDAY1oz3n9mCc_Ib-7">
          <mxGeometry relative="1" as="geometry" />
        </mxCell>
        <mxCell id="XG8FFDAY1oz3n9mCc_Ib-4" value="" style="sketch=0;points=[[0,0,0],[0.25,0,0],[0.5,0,0],[0.75,0,0],[1,0,0],[0,1,0],[0.25,1,0],[0.5,1,0],[0.75,1,0],[1,1,0],[0,0.25,0],[0,0.5,0],[0,0.75,0],[1,0.25,0],[1,0.5,0],[1,0.75,0]];outlineConnect=0;fontColor=#232F3E;gradientColor=#F78E04;gradientDirection=north;fillColor=#D05C17;strokeColor=#ffffff;dashed=0;verticalLabelPosition=bottom;verticalAlign=top;align=center;html=1;fontSize=12;fontStyle=0;aspect=fixed;shape=mxgraph.aws4.resourceIcon;resIcon=mxgraph.aws4.lambda;" vertex="1" parent="1">
          <mxGeometry x="452" y="159" width="78" height="78" as="geometry" />
        </mxCell>
        <mxCell id="XG8FFDAY1oz3n9mCc_Ib-12" style="edgeStyle=none;curved=1;rounded=0;orthogonalLoop=1;jettySize=auto;html=1;entryX=0;entryY=0.5;entryDx=0;entryDy=0;entryPerimeter=0;fontSize=12;startSize=8;endSize=8;" edge="1" parent="1" source="XG8FFDAY1oz3n9mCc_Ib-5" target="XG8FFDAY1oz3n9mCc_Ib-6">
          <mxGeometry relative="1" as="geometry" />
        </mxCell>
        <mxCell id="XG8FFDAY1oz3n9mCc_Ib-5" value="" style="sketch=0;outlineConnect=0;fontColor=#232F3E;gradientColor=none;fillColor=#2E27AD;strokeColor=none;dashed=0;verticalLabelPosition=bottom;verticalAlign=top;align=center;html=1;fontSize=12;fontStyle=0;aspect=fixed;pointerEvents=1;shape=mxgraph.aws4.rds_proxy;" vertex="1" parent="1">
          <mxGeometry x="672" y="159" width="78" height="78" as="geometry" />
        </mxCell>
        <mxCell id="XG8FFDAY1oz3n9mCc_Ib-6" value="" style="sketch=0;points=[[0,0,0],[0.25,0,0],[0.5,0,0],[0.75,0,0],[1,0,0],[0,1,0],[0.25,1,0],[0.5,1,0],[0.75,1,0],[1,1,0],[0,0.25,0],[0,0.5,0],[0,0.75,0],[1,0.25,0],[1,0.5,0],[1,0.75,0]];outlineConnect=0;fontColor=#232F3E;gradientColor=#4D72F3;gradientDirection=north;fillColor=#3334B9;strokeColor=#ffffff;dashed=0;verticalLabelPosition=bottom;verticalAlign=top;align=center;html=1;fontSize=12;fontStyle=0;aspect=fixed;shape=mxgraph.aws4.resourceIcon;resIcon=mxgraph.aws4.aurora;" vertex="1" parent="1">
          <mxGeometry x="803" y="159" width="78" height="78" as="geometry" />
        </mxCell>
        <mxCell id="XG8FFDAY1oz3n9mCc_Ib-7" value="" style="sketch=0;points=[[0,0,0],[0.25,0,0],[0.5,0,0],[0.75,0,0],[1,0,0],[0,1,0],[0.25,1,0],[0.5,1,0],[0.75,1,0],[1,1,0],[0,0.25,0],[0,0.5,0],[0,0.75,0],[1,0.25,0],[1,0.5,0],[1,0.75,0]];outlineConnect=0;fontColor=#232F3E;gradientColor=#FF4F8B;gradientDirection=north;fillColor=#BC1356;strokeColor=#ffffff;dashed=0;verticalLabelPosition=bottom;verticalAlign=top;align=center;html=1;fontSize=12;fontStyle=0;aspect=fixed;shape=mxgraph.aws4.resourceIcon;resIcon=mxgraph.aws4.sqs;" vertex="1" parent="1">
          <mxGeometry x="452" y="334" width="78" height="78" as="geometry" />
        </mxCell>
        <mxCell id="XG8FFDAY1oz3n9mCc_Ib-16" value="POST" style="text;html=1;strokeColor=none;fillColor=none;align=center;verticalAlign=middle;whiteSpace=wrap;rounded=0;fontSize=16;" vertex="1" parent="1">
          <mxGeometry x="-51" y="154" width="60" height="30" as="geometry" />
        </mxCell>
        <mxCell id="XG8FFDAY1oz3n9mCc_Ib-17" value="/v1/order" style="text;html=1;strokeColor=none;fillColor=none;align=center;verticalAlign=middle;whiteSpace=wrap;rounded=0;fontSize=16;" vertex="1" parent="1">
          <mxGeometry x="-51" y="207" width="60" height="30" as="geometry" />
        </mxCell>
        <mxCell id="XG8FFDAY1oz3n9mCc_Ib-18" value="Stream changes" style="text;html=1;strokeColor=none;fillColor=none;align=center;verticalAlign=middle;whiteSpace=wrap;rounded=0;fontSize=16;" vertex="1" parent="1">
          <mxGeometry x="135" y="157" width="126" height="30" as="geometry" />
        </mxCell>
        <mxCell id="XG8FFDAY1oz3n9mCc_Ib-19" value="Consumer&amp;nbsp;" style="text;html=1;strokeColor=none;fillColor=none;align=center;verticalAlign=middle;whiteSpace=wrap;rounded=0;fontSize=16;" vertex="1" parent="1">
          <mxGeometry x="461" y="114" width="60" height="30" as="geometry" />
        </mxCell>
        <mxCell id="XG8FFDAY1oz3n9mCc_Ib-20" value="Failed Records" style="text;html=1;strokeColor=none;fillColor=none;align=center;verticalAlign=middle;whiteSpace=wrap;rounded=0;fontSize=16;" vertex="1" parent="1">
          <mxGeometry x="503" y="268" width="60" height="30" as="geometry" />
        </mxCell>
        <mxCell id="XG8FFDAY1oz3n9mCc_Ib-21" value="DLQ" style="text;html=1;strokeColor=none;fillColor=none;align=center;verticalAlign=middle;whiteSpace=wrap;rounded=0;fontSize=16;" vertex="1" parent="1">
          <mxGeometry x="459" y="424" width="60" height="30" as="geometry" />
        </mxCell>
        <mxCell id="XG8FFDAY1oz3n9mCc_Ib-23" value="RDBMS Store" style="text;html=1;strokeColor=none;fillColor=none;align=center;verticalAlign=middle;whiteSpace=wrap;rounded=0;fontSize=16;" vertex="1" parent="1">
          <mxGeometry x="722" y="270" width="110" height="30" as="geometry" />
        </mxCell>
      </root>
    </mxGraphModel>
  </diagram>
</mxfile>
